{"title":"Beetlejuice(1988)MPEG-4[DaScubaDude]","uid":15194759,"size":1039480026,"categoryP":"video","categoryS":"movies","magnet":"?xt=urn:btih:f0e57540877e432812afcb4a51a033eec5d13256&amp;dn=Beetlejuice%281988%29MPEG-4%5BDaScubaDude%5D&amp;tr=udp%3A%2F%2Ftracker.leechers-paradise.org%3A6969&amp;tr=udp%3A%2F%2Fzer0day.ch%3A1337&amp;tr=udp%3A%2F%2Fopen.demonii.com%3A1337&amp;tr=udp%3A%2F%2Ftracker.coppersurfer.tk%3A6969&amp;tr=udp%3A%2F%2Fexodus.desync.com%3A6969","seeders":1,"leechers":0,"uploader":"dascuba","files":1,"time":1467556297,"description":"Beetlejuice (1988)\r\nPG | 1h 32min | Comedy, Fantasy | 30 March 1988 (USA)\r\nA couple of recently deceased ghosts contract the services of a &quot;bio-exorcist&quot; in order to remove the obnoxious new owners of their house.\r\nDirector: Tim Burton\r\nWriters: Michael McDowell (story), Larry Wilson (story) | \r\nStars: Alec Baldwin, Geena Davis, Michael Keaton |\r\n\r\nGeneral\r\nComplete name                            : BeetlejuiceBEETLEJUICE_Title1.mp4\r\nFormat                                   : MPEG-4\r\nFormat profile                           : Base Media\r\nCodec ID                                 : isom (isom/iso2/avc1/mp41)\r\nFile size                                : 991 MiB\r\nDuration                                 : 1h 31mn\r\nOverall bit rate                         : 1 507 Kbps\r\nMovie name                               : BEETLEJUICE\r\nGenre                                    : Fantasy\r\nWriting application                      : Lavf54.6.100\r\n\r\nVideo\r\nID                                       : 1\r\nFormat                                   : AVC\r\nFormat/Info                              : Advanced Video Codec\r\nFormat profile                           :   \r\nFormat settings, CABAC                   : No\r\nFormat settings, ReFrames                : 6 frames\r\nFormat settings, GOP                     : M=1, N=60\r\nCodec ID                                 : avc1\r\nCodec ID/Info                            : Advanced Video Coding\r\nDuration                                 : 1h 31mn\r\nBit rate                                 : 1 193 Kbps\r\nWidth                                    : 720 pixels\r\nHeight                                   : 404 pixels\r\nDisplay aspect ratio                     : 16:9\r\nFrame rate mode                          : Constant\r\nFrame rate                               : 29.970 (30000/1001) fps\r\nColor space                              : YUV\r\nChroma subsampling                       : 4:2:0\r\nBit depth                                : 8 bits\r\nScan type                                : Progressive\r\nBits/(Pixel*Frame)                       : 0.137\r\nStream size                              : 785 MiB (79%)\r\n\r\nAudio\r\nID                                       : 2\r\nFormat                                   : AAC\r\nFormat/Info                              : Advanced Audio Codec\r\nFormat profile                           : LC\r\nCodec ID                                 : 40\r\nDuration                                 : 1h 31mn\r\nBit rate mode                            : Constant\r\nBit rate                                 : 307 Kbps\r\nChannel(s)                               : 2 channels\r\nChannel(s)_Original                      : 6 channels\r\nChannel positions                        : Front: L C R, Side: L R, LFE\r\nSampling rate                            : 44.1 KHz\r\nFrame rate                               : 43.066 fps (1024 spf)\r\nCompression mode                         : Lossy\r\nStream size                              : 202 MiB (20%)\r\nDefault                                  : Yes\r\nAlternate group                          : 1","torrent":{"xt":"urn:btih:f0e57540877e432812afcb4a51a033eec5d13256","amp;dn":"Beetlejuice%281988%29MPEG-4%5BDaScubaDude%5D","amp;tr":["udp%3A%2F%2Ftracker.leechers-paradise.org%3A6969","udp%3A%2F%2Fzer0day.ch%3A1337","udp%3A%2F%2Fopen.demonii.com%3A1337","udp%3A%2F%2Ftracker.coppersurfer.tk%3A6969","udp%3A%2F%2Fexodus.desync.com%3A6969"],"infoHash":"f0e57540877e432812afcb4a51a033eec5d13256","infoHashBuffer":{"type":"Buffer","data":[240,229,117,64,135,126,67,40,18,175,203,74,81,160,51,238,197,209,50,86]},"announce":[],"urlList":[]}}